<mxfile host="app.diagrams.net" agent="Mozilla/5.0 (Windows NT 10.0; Win64; x64) AppleWebKit/537.36 (KHTML, like Gecko) Chrome/131.0.0.0 Safari/537.36" version="24.8.6">
  <diagram name="Página-1" id="7L3CTcgN1SewSpO0tpkv">
    <mxGraphModel dx="685" dy="291" grid="1" gridSize="10" guides="1" tooltips="1" connect="1" arrows="1" fold="1" page="1" pageScale="1" pageWidth="827" pageHeight="1169" math="0" shadow="0">
      <root>
        <mxCell id="0" />
        <mxCell id="1" parent="0" />
        <mxCell id="0rb8iIj1yWXUQxicALBI-1" value="Início" style="ellipse;whiteSpace=wrap;html=1;" vertex="1" parent="1">
          <mxGeometry x="50" y="30" width="100" height="50" as="geometry" />
        </mxCell>
        <mxCell id="0rb8iIj1yWXUQxicALBI-8" value="Informe a&amp;nbsp;&lt;div&gt;primeira nota:&lt;/div&gt;" style="shape=display;whiteSpace=wrap;html=1;align=center;size=0.2;" vertex="1" parent="1">
          <mxGeometry x="50" y="142" width="100" height="50" as="geometry" />
        </mxCell>
        <mxCell id="0rb8iIj1yWXUQxicALBI-10" value="7" style="shape=manualInput;whiteSpace=wrap;html=1;size=13;" vertex="1" parent="1">
          <mxGeometry x="50" y="252" width="100" height="50" as="geometry" />
        </mxCell>
        <mxCell id="0rb8iIj1yWXUQxicALBI-12" value="Informe a&lt;div&gt;segunda nota:&lt;/div&gt;" style="shape=display;whiteSpace=wrap;html=1;" vertex="1" parent="1">
          <mxGeometry x="50" y="362" width="100" height="50" as="geometry" />
        </mxCell>
        <mxCell id="0rb8iIj1yWXUQxicALBI-14" value="A média&lt;div&gt;é maior ou igual&lt;/div&gt;&lt;div&gt;a 7?&lt;/div&gt;" style="strokeWidth=2;html=1;shape=mxgraph.flowchart.decision;whiteSpace=wrap;" vertex="1" parent="1">
          <mxGeometry x="210" y="200" width="100" height="100" as="geometry" />
        </mxCell>
        <mxCell id="0rb8iIj1yWXUQxicALBI-24" value="8" style="shape=manualInput;whiteSpace=wrap;html=1;size=13;" vertex="1" parent="1">
          <mxGeometry x="50" y="472" width="100" height="50" as="geometry" />
        </mxCell>
        <mxCell id="0rb8iIj1yWXUQxicALBI-25" value="" style="shape=flexArrow;endArrow=classic;html=1;rounded=0;endWidth=11.428571428571429;endSize=6.442857142857142;" edge="1" parent="1">
          <mxGeometry width="50" height="50" relative="1" as="geometry">
            <mxPoint x="99.75" y="412" as="sourcePoint" />
            <mxPoint x="100.25" y="462" as="targetPoint" />
          </mxGeometry>
        </mxCell>
        <mxCell id="0rb8iIj1yWXUQxicALBI-26" value="" style="shape=flexArrow;endArrow=classic;html=1;rounded=0;endWidth=6.666666666666666;endSize=5.3999999999999995;" edge="1" parent="1">
          <mxGeometry width="50" height="50" relative="1" as="geometry">
            <mxPoint x="150" y="604.76" as="sourcePoint" />
            <mxPoint x="200" y="604.76" as="targetPoint" />
          </mxGeometry>
        </mxCell>
        <mxCell id="0rb8iIj1yWXUQxicALBI-28" value="" style="shape=flexArrow;endArrow=classic;html=1;rounded=0;endWidth=11.428571428571429;endSize=6.442857142857142;" edge="1" parent="1">
          <mxGeometry width="50" height="50" relative="1" as="geometry">
            <mxPoint x="99.75" y="302" as="sourcePoint" />
            <mxPoint x="100.25" y="352" as="targetPoint" />
          </mxGeometry>
        </mxCell>
        <mxCell id="0rb8iIj1yWXUQxicALBI-29" value="" style="shape=flexArrow;endArrow=classic;html=1;rounded=0;endWidth=11.428571428571429;endSize=6.442857142857142;" edge="1" parent="1">
          <mxGeometry width="50" height="50" relative="1" as="geometry">
            <mxPoint x="99.75" y="192" as="sourcePoint" />
            <mxPoint x="100.25" y="242" as="targetPoint" />
          </mxGeometry>
        </mxCell>
        <mxCell id="0rb8iIj1yWXUQxicALBI-30" value="" style="shape=flexArrow;endArrow=classic;html=1;rounded=0;endWidth=11.428571428571429;endSize=6.442857142857142;" edge="1" parent="1">
          <mxGeometry width="50" height="50" relative="1" as="geometry">
            <mxPoint x="99.75" y="80" as="sourcePoint" />
            <mxPoint x="100.25" y="130" as="targetPoint" />
          </mxGeometry>
        </mxCell>
        <mxCell id="0rb8iIj1yWXUQxicALBI-31" value="8" style="shape=manualInput;whiteSpace=wrap;html=1;size=13;" vertex="1" parent="1">
          <mxGeometry x="210" y="580" width="100" height="50" as="geometry" />
        </mxCell>
        <mxCell id="0rb8iIj1yWXUQxicALBI-32" value="" style="shape=flexArrow;endArrow=classic;html=1;rounded=0;endWidth=11.428571428571429;endSize=6.442857142857142;" edge="1" parent="1">
          <mxGeometry width="50" height="50" relative="1" as="geometry">
            <mxPoint x="99.75" y="522" as="sourcePoint" />
            <mxPoint x="100.25" y="572" as="targetPoint" />
          </mxGeometry>
        </mxCell>
        <mxCell id="0rb8iIj1yWXUQxicALBI-33" value="Informe a&lt;div&gt;terceira nota:&lt;/div&gt;" style="shape=display;whiteSpace=wrap;html=1;" vertex="1" parent="1">
          <mxGeometry x="50" y="580" width="100" height="50" as="geometry" />
        </mxCell>
        <mxCell id="0rb8iIj1yWXUQxicALBI-34" value="" style="shape=flexArrow;endArrow=classic;html=1;rounded=0;endWidth=11.428571428571429;endSize=6.442857142857142;" edge="1" parent="1">
          <mxGeometry width="50" height="50" relative="1" as="geometry">
            <mxPoint x="260.25" y="585" as="sourcePoint" />
            <mxPoint x="259.75" y="535" as="targetPoint" />
          </mxGeometry>
        </mxCell>
        <mxCell id="0rb8iIj1yWXUQxicALBI-35" value="Média = (7+8++8)/3" style="rounded=0;whiteSpace=wrap;html=1;" vertex="1" parent="1">
          <mxGeometry x="210" y="472" width="100" height="47" as="geometry" />
        </mxCell>
        <mxCell id="0rb8iIj1yWXUQxicALBI-36" value="7,6" style="shape=display;whiteSpace=wrap;html=1;" vertex="1" parent="1">
          <mxGeometry x="210" y="362" width="100" height="50" as="geometry" />
        </mxCell>
        <mxCell id="0rb8iIj1yWXUQxicALBI-37" value="" style="shape=flexArrow;endArrow=classic;html=1;rounded=0;endWidth=11.428571428571429;endSize=6.442857142857142;" edge="1" parent="1">
          <mxGeometry width="50" height="50" relative="1" as="geometry">
            <mxPoint x="260.25" y="472" as="sourcePoint" />
            <mxPoint x="259.75" y="422" as="targetPoint" />
          </mxGeometry>
        </mxCell>
        <mxCell id="0rb8iIj1yWXUQxicALBI-38" value="" style="shape=flexArrow;endArrow=classic;html=1;rounded=0;endWidth=11.428571428571429;endSize=6.442857142857142;" edge="1" parent="1">
          <mxGeometry width="50" height="50" relative="1" as="geometry">
            <mxPoint x="260.25" y="362" as="sourcePoint" />
            <mxPoint x="259.75" y="312" as="targetPoint" />
          </mxGeometry>
        </mxCell>
        <mxCell id="0rb8iIj1yWXUQxicALBI-39" value="" style="shape=flexArrow;endArrow=classic;html=1;rounded=0;endWidth=6.666666666666666;endSize=5.3999999999999995;" edge="1" parent="1">
          <mxGeometry width="50" height="50" relative="1" as="geometry">
            <mxPoint x="310" y="249.76" as="sourcePoint" />
            <mxPoint x="360" y="249.76" as="targetPoint" />
          </mxGeometry>
        </mxCell>
        <mxCell id="0rb8iIj1yWXUQxicALBI-40" value="Sim" style="text;html=1;align=center;verticalAlign=middle;resizable=0;points=[];autosize=1;strokeColor=none;fillColor=none;" vertex="1" parent="1">
          <mxGeometry x="310" y="222" width="40" height="30" as="geometry" />
        </mxCell>
        <mxCell id="0rb8iIj1yWXUQxicALBI-41" value="Aprovado" style="shape=display;whiteSpace=wrap;html=1;" vertex="1" parent="1">
          <mxGeometry x="370" y="225" width="100" height="50" as="geometry" />
        </mxCell>
        <mxCell id="0rb8iIj1yWXUQxicALBI-42" value="Reprovado" style="shape=display;whiteSpace=wrap;html=1;" vertex="1" parent="1">
          <mxGeometry x="210" y="92" width="100" height="50" as="geometry" />
        </mxCell>
        <mxCell id="0rb8iIj1yWXUQxicALBI-43" value="" style="shape=flexArrow;endArrow=classic;html=1;rounded=0;endWidth=11.428571428571429;endSize=6.442857142857142;" edge="1" parent="1">
          <mxGeometry width="50" height="50" relative="1" as="geometry">
            <mxPoint x="260.25" y="200" as="sourcePoint" />
            <mxPoint x="259.75" y="150" as="targetPoint" />
          </mxGeometry>
        </mxCell>
        <mxCell id="0rb8iIj1yWXUQxicALBI-44" value="Não" style="text;html=1;align=center;verticalAlign=middle;resizable=0;points=[];autosize=1;strokeColor=none;fillColor=none;" vertex="1" parent="1">
          <mxGeometry x="260" y="170" width="50" height="30" as="geometry" />
        </mxCell>
        <mxCell id="0rb8iIj1yWXUQxicALBI-45" value="" style="shape=flexArrow;endArrow=classic;html=1;rounded=0;endWidth=6.666666666666666;endSize=5.3999999999999995;" edge="1" parent="1">
          <mxGeometry width="50" height="50" relative="1" as="geometry">
            <mxPoint x="310" y="116.76" as="sourcePoint" />
            <mxPoint x="360" y="116.76" as="targetPoint" />
          </mxGeometry>
        </mxCell>
        <mxCell id="0rb8iIj1yWXUQxicALBI-46" value="" style="shape=flexArrow;endArrow=classic;html=1;rounded=0;endWidth=11.428571428571429;endSize=6.442857142857142;exitX=0;exitY=0;exitDx=50;exitDy=0;exitPerimeter=0;" edge="1" parent="1" source="0rb8iIj1yWXUQxicALBI-41">
          <mxGeometry width="50" height="50" relative="1" as="geometry">
            <mxPoint x="420.25" y="222" as="sourcePoint" />
            <mxPoint x="420" y="150" as="targetPoint" />
          </mxGeometry>
        </mxCell>
        <mxCell id="0rb8iIj1yWXUQxicALBI-47" value="Fim" style="ellipse;whiteSpace=wrap;html=1;" vertex="1" parent="1">
          <mxGeometry x="370" y="92" width="100" height="50" as="geometry" />
        </mxCell>
      </root>
    </mxGraphModel>
  </diagram>
</mxfile>
